<?xml version="1.0" encoding="UTF-8"?>
<svg id="Layer_2" xmlns="http://www.w3.org/2000/svg" viewBox="0 0 164.58 288.18">
  <defs>
    <style>
      .cls-1 {
        fill: #214e34;
      }

      .cls-2 {
        fill: #ebe3d6;
      }
    </style>
  </defs>
  <g id="Layer_1-2" data-name="Layer_1">
    <g>
      <path class="cls-1" d="M4.29,91.82c-1.15-17.96-.81-35.97-2.24-53.89-.2-2.56-.35-5.12-.34-7.69.04-6.3-2.74-16.78-1.31-22.76C.99,5.04,3.15,3.32,5.64,3.14,22.63,1.87,39.01-1.93,55.65,1.22c6.86,1.3,13.81,2.1,20.77,2.61,24.02,1.73,47.81,6.62,71.81,7.12.34,0,.68,0,1.02-.07,10.49-2.02,8.55,62.96,10.13,72.73-.21,0,.21,0,0,0,11.39,63.64.39,127.56,1.16,191.49.03,2.79-1.93,5.22-4.67,5.77-32.18,6.44-66.62,6.73-99.65,5.49-1.26-.05-2.52-.1-3.78-.22-9.01-.84-40.82,7.1-39.43-3.66.27-2.13.57-4.25.68-6.39,2.95-55.02-6.38-115.83-8.69-168.24"/>
      <g>
        <path class="cls-2" d="M69.57,192.16c-9.66,14.77-33.02,2.29-22.98-13.28,12.27-13.62,27.35-25.2,23.53-45.81.01-3.27,1.44-6.69,4.63-7.94,5.51-3.01,14.05,7.59,6.69,9.63-1.69.8-3.95-1.36-1.93-2.53,2.6-1.29-1.3-5.43-3.2-3.63-3.73,4.25.4,11.89-2.37,17.21-.54,15.52-14.9,22.76-23.36,34.11-9.41,11.57,7.02,21.49,15.57,10.78,5.49-6.12-3.03-17.57-8.14-8.84,1.44-3.14,5.13-.1,2.86,2-3.43,4.4-8.54.31-6.22-4.32,5.91-8.97,18.09-1.65,16.53,7.97,3.11-7.1,11.01-14.07,6.99-22.34-2.44-4.87-8.42.09-8.07,4.19.01,2.6,2.84,2.37,3.46.14.4-.98-1.77-1.44-.94-2.59,3.3-2.52,5.81,3.88,2.53,5.82-11.75,7.11-9.88-16.8,1.95-11.7,11.95,7.51.28,20.65-3.67,29.4-1.75,3.44-.81,7.48-2.13,10.92-3.71.33-1.45-6.66-1.75-9.18Z"/>
        <path class="cls-2" d="M41.84,167.08c5.57,1.32,12.93-6.83,6.43-9.62,4.13,6.75-9.4,8.19-7.5.74,6.98-13.38,21.23,5.79,8.1,11.14-10.17,5.76-24.83-6.63-15.51-16.44,6.04-7.46,16.34-6.82,23.58-11.8,7.5-2.66,6.09-33.77,13.31-27.33-3.55,10.1-2.13,24.14-11.68,30.99-7.28,4.85-17.53,4.54-23.2,12.2-3.47,4.61,1.33,10.55,6.46,10.12ZM45.81,158.08c-.94.43-1.38,1.05-1.3,1.8.99-.17,1.34-.63,1.3-1.8Z"/>
        <path class="cls-2" d="M76.96,254.13c-1.02,6.64-13.83,7.22-12.34-.47,1.32-2.63,7.33-.37,4.13,1.93.03.08.06.17.09.25,4.36.07,5.4-4.01,4.95-7.63-3.83.39-8.14-.65-9.63-4.6-1.14-1.48-5.18.04-5.26,2.11-.28,1.8,2.39,2.01,1.88,3.69-1.63,2.02.66,4.49-.93,6.53-.99,1.84-4.82.42-3.37-1.57.88-1.25.34-3.06.24-4.38-1.92,1.19-4.95.63-6.34,2.31-.49.9-.77.93-1.73.6-1.08-.22-1.9-1.11-1.58-2.23.92-3.43,5.06-1.76,7.24-3.84.46-3.39,2.69-6.98,6.52-6.89,2.58-.3,6.06-.24,6.87,2.97.2,2.69,4.19,2.26,5.67.98,5.75-5.4,10.27-15.07,8.67-23.43-.5-1.45.21-4.23,2.24-2.92,1.91,2.05,1.3,5.57,1.83,8.2-.29,5.96-2.68,11.97-6.14,16.79-2.24,2.36-4.39,7.76-.04,9.06,1.21.3,2.45-1.19,1.35-2.1-.55-.65-.37-1.23.44-1.55,3.92-1.36,4.75,4.67,1.62,6.05-2.02,1.18-4.13.65-6.38.15Z"/>
        <path class="cls-2" d="M81.51,152.7c2.61-2.61,7.05.94,4.77,3.97-4.57,5.3-11.72-2.72-7.78-7.62,8.35-8.56,17.27,4.92,15.56,13.33-1.88,17.72-25.93,32.11-11.52,50.68.22.39.38.93.31,1.36-6.37.83-7.83-10.82-8.42-15.76-.66-16.68,21.31-26.88,14.73-44.37-.43-4.15-7.78-7.51-7.64-1.59Z"/>
        <path class="cls-2" d="M114.1,156.67c.42-.79.23-2.34,1.31-2,3.36.56,2.01,3.7.15,5.33-1.97,1.35-4.19-.9-4.91-2.65-.69-13.14,16.35-8.43,15.22,2.74-.15,10.55-13.89,13.12-19.75,5.28-7.68-15.98-.66-36.57-15.84-49.82-1.23-6.77,6.93,3.78,7.88,5.52,12.3,9.76-.67,52.56,21.48,44.42,8.41-5.57-3.52-21-5.56-8.81Z"/>
        <path class="cls-2" d="M81.58,60.66c8.88.85.99,12.18-4.49,4.56-3.42-14.53,15.87-9.97,14.66,3.04,2.02,16.84-18.6,27.65-13.18,44.62,0,2.61-2.43.8-2.92-.64-7.88-17.24,16.09-29.81,11.79-47.17-.36-2.7-2.83-7.69-5.96-4.64.03.08.07.16.1.24Z"/>
        <path class="cls-2" d="M120.2,204.83c-1.47.33-3.89-1.33-2.45-2.7.89-.95,2.33.12,3.35-.69,3.27-3.8-4.75-3.12-4.2.82.51,9.53,17.51,6.86,14.97-2.51-3.31-15.52-24.01-5.35-30.76-26.66-.53-2.19-3.34-7.65,1.01-6.54,1.54,3.43,2.09,8,4.83,11.14,4.68,7.76,13.39,8.33,20.93,11.31,12.51,7.27,7.08,26.99-8.1,21.64-5.79-2.2-9.22-10.58-3.1-14.39,7.21-4.08,12.58,7.37,3.51,8.58-.02-.08.02.08,0,0Z"/>
        <path class="cls-2" d="M114.17,247.89c-1.25,3.17-7.2,1.9-4.4-.61.76-.39,1.27-1.01,1.05-1.43-.7-1.14-2.23-.47-2.97.25-3.44,2.91-9.7,2.04-12.08-1.9-.99,2.03-6.79,11.34-1.38,9.68.8-.91-.15-2.56.66-3.31,2.48-.96,4.65,3.91,2.53,5.21-2.47,2.39-7.49,1.86-8.66-1.61-1.87-5.25,3.29-10.56,5.22-15.29,3.63-7.3,1.17-15.66.38-23.33-.33-2-.9-7.82,2.38-4.97,1.53,3.77,1.56,8.38,2.18,12.46,2.19,6.72-1.39,14.08-.05,20.39,4.69,3.94,9.51-4.88,14.19.35,1.54.12,2.18,1.4,3.45,2.27,1.5,1.02,3.24-.57,4.7.45,2.31,4.02-5.31,3.27-7.2,1.38Z"/>
        <path class="cls-2" d="M48.48,123.78c5.08,3.5-5.14,5.86-5.34.92.19-9.12,15.84-3.29,12.46,4.63-3.56,10.44-22.22,6.31-20.5-4.57,1.73-12.22,15.91-11.95,25.18-14.09,3.17-.6,6.77-8.55,8.18-2.23-4.95,10.26-19.6,3.9-26.61,12.05-7.87,6.9,1.94,16.85,9.07,9.42,2.49-1.94,1.15-7.91-2.44-6.15Z"/>
        <path class="cls-2" d="M115.02,129.17c1.47.51,3.49.54,1.87-1.26-7.9-.7-2,11.97,4.76,9.19,7.66-1.22,4.26-11.88-.54-14.9-5.8-5.87-21.75-6.22-21.88-15.55.6-.85,2.68-.52,2.93.55,6.14,7.77,18.75,7.41,24.83,15.93,8.29,9.61-1.32,22.04-12.58,16.19-5.8-2.54-8.07-13.39-.45-14.81,3.22-.75,6.52.86,7.42,4.12,1.47,4.53-9.49,5.97-6.38.53Z"/>
        <path class="cls-2" d="M45.08,70.4c-4.29,3.73.42,9.48,4.35,11.27,2.13,1.84,6.34.37,7.31,3.35-3.09,5.25-15.41-4.28-16.42-9.11-2.79-3.57,2.65-13.26,5.56-6.45,3.35-6.76,16.53-3.26,11.59,3.69-2.69,1.67-7.2-2.41-3.18-3.86-2.33-2.86-7.06,3.26-4.7,5.71,6.94,7.45,21.02-.15,18.91-10.31.6-2.53,4.32-.73,3.73,1.39,2.94,15.98-27.84,21.76-27.14,4.31Z"/>
        <path class="cls-2" d="M94.49,196.75c-3.06-10.25-9.74,3.81-6.57,9.17,4.68,10.66,10.76,27.3,1.16,36.31-.77-.36-2.12-.49-1.54-1.67,3.45-7.62,4.65-16.57.95-24.35-3.1-7.36-9.16-18.45-1.17-24.7,3.46-2.14,8.29-1.28,10.19,2.56,5.45,7.09-5.89,13.36-8.55,5.25-.43-3.01,3.45-4.99,5.53-2.58Z"/>
        <path class="cls-2" d="M88.53,103.54c-17.16,14.84,16.78,35.31,8.79,50.4-3.18-.27-1.74-5.04-2.68-7.27-2.78-13.1-16.67-22.5-14.65-36.78.38-9.2,13.71-14.4,15.93-3.28-.38,2.94-4.95,4.67-7.28,2.64-1.57-1.26.32-3.75-.11-5.7Z"/>
        <path class="cls-2" d="M101.41,89.65c5.21,1.85-.92,7.39-3.59,3.85-4.01-6.01,5.07-10.83,9.41-6.31,9.19,9.26-6.53,21.21-13.98,11.17-8.15-11.24,8.01-24.06-.31-35.41.78-1.68,3.29.32,3.95,1.44,6.97,10.15-5.23,20.96-1.29,31.41,3.51,8.47,14.98-.17,9.21-6.57-.86-1-3.61-1.66-3.39.42Z"/>
        <path class="cls-2" d="M62.49,91.65c8.41-2.69,10.49,10.41,1.36,9.77-4.24.31-9.17-3.41-7.85-7.98,1.81-7.34,11.66-7.11,15.35-12.9,3.27-3.61.36-10.12,2.39-13.15,3.83-1.18,3.16,10.27,1.9,12.6.26,7.82-23.98,12.1-13.41,18.73,2.09.1,5.71-1.92,3.6-4.06-1.09-.28-.36,1.65-1.15,2.01-2.58.1-4.54-2.81-2.2-5.03Z"/>
        <path class="cls-2" d="M50.39,211.41c2.31,5.65-6.32,3.56-4.66-.9,4.36-5.64,12.5-.38,8.88,5.88-4.42,6-20.01,2.44-16.44-6.08,4.83-9.43,15.86-4.05,23.45-7.44,1.51-1.7,6.37-4.81,5.06-.16-5.88,9.44-20.73-.84-25.54,9.86-.58,4.81,9.06,4.67,10.81,1.48.26-1.28.77-3.81-1.56-2.64Z"/>
        <path class="cls-2" d="M37.11,186.18c.11,4.07-5.28,7.22-5.96,1.82.17-1.21,1.29-1.91,2.44-1.99-.02-.74.37-1.94-.74-1.96-12.39,3.43,2.41,17.2,7.18,7.31.97-5.29-1.94-10.55.62-15.72,1.55-5.82,7.08-3.84,2.75,1.5-2.68,4.98,1.16,10.24-.35,15.29-2.85,10-21.8,3.66-17.77-6.16,1.73-5.61,11.83-7.81,11.62-.12.07,0,.15.02.22.03Z"/>
        <path class="cls-2" d="M112.46,83.52c5.28.19,3.61-10.4-.66-8.1-.82,1.52,1.68,1.96,1.22,3.41-4.62,4.09-7.61-6.65-1.9-6.64,12.45-1.35,9.91,18.78-2.15,13.44-9.24-3.3-6.01-14.26-10.11-20.84-1.35-2.08-.42-2.62,1.77-2.29,6.84,4.97,1.74,19.28,11.82,21.02Z"/>
        <path class="cls-2" d="M50.59,107.29c2.73-.66,5.35-1.76,7.91-2.79,1.25-.03,3.22,2.13,1.4,2.91-5.45,3.24-11.98,2.47-17.52,5.43-7.98,2.97-12.43,13.71-5.05,19.67-1.52,4.58-7.86-4.55-7-7.51-.93-10.99,10.92-16.44,20.24-17.72.03.12-.03-.12,0,0Z"/>
        <path class="cls-2" d="M136.4,131.68c-.27,1.62-.2,3.28-.54,4.89-.61,2.26-5.57,2.31-3.35-.69,3.12-15.04-16.71-20.35-25.97-27.52-1.45-1.92,1.55-3.02,2.59-1.4,1.29,1.14,3.34,1.55,4.9,2.4,8.78,5.2,21.49,10.95,22.38,22.32.09,0-.09,0,0,0Z"/>
        <path class="cls-2" d="M139.85,200.49c.36,5.23-4.92,7.57-3.07.65-1.53-12.83-15.7-16.02-24.79-21.74-1.79-1.78-9.25-9.17-4.77-10.34,3.29,2.59,4.46,8.2,9.16,10.03,10.07,3.63,21.37,9.8,23.47,21.4Z"/>
        <path class="cls-2" d="M91.36,38.87c-.49,5.63-3.95,10.26-5.77,15.09-6.38-1.27,1.5-9.12,2.05-12.63,2.86-4.96-2.8-14.61-6.7-6.8-.44,1.29.6,3.73,2.24,3.21-.9-6.05,6.86.71.94,2.65-18.1-4.92,6.35-22.27,7.23-1.51Z"/>
        <path class="cls-2" d="M98.83,177.93c-.2,3.44-6.06,1.59-2.85-.89-8.4,3.86,12.38,16.09,11.08,23.67.37,1.6.16,5.55-2.34,3.44.41-11.03-12.79-15.51-14.1-25.4-.32-5.49,7.83-6.72,8.22-.82Z"/>
        <path class="cls-2" d="M127.91,161.83c.26-4.67-3.18-8.43-4.18-12.6,4.65-3.57,10.36,16.38,6.18,19.98-1.76,4.47-11.06,8.31-12.69,2.31,5.82.09,11.1-2.67,10.68-9.69Z"/>
        <path class="cls-2" d="M110.59,60.15c-.1,2.03-1.46,4.35-3.7,4.52-1.66.1-3.95-1.59-1.67-3,6.38-7-7.13-12.4-9-18.57-1.48-7.31,4.72.54,5.79,2.93,4.11,3.77,8.78,8.02,8.58,14.12Z"/>
        <path class="cls-2" d="M62.86,55.08c.54-5.12,3.95-9.13,8.71-10.98.62-.49,1.26-1.19,1.59-1.93,1.71-2.86,4.33,2.03,2.65,3.63-4.66,3.85-11.84,7.08-8.69,14.52-.61,4.73-4.64-3.18-4.25-5.23Z"/>
        <path class="cls-2" d="M94.82,46.17c.11,3.57-2.28,11.28,2.87,11.46.89-.17,1.69-2.52.1-2.23-2.79.03-1.77-3.95.65-3.23,4.19,1,4.29,7.27.05,8.33-10.52,3.05-7.65-25.16-3.67-14.32Z"/>
        <path class="cls-2" d="M125.09,77.95c.2,4.53-3.84,15.66-9.08,11.69.01-2.47,3.5-4.04,4.13-6.66,2.96-4.03,1.03-8.09-1.38-11.71,1.31-5.18,6.55,4.57,6.33,6.68Z"/>
        <path class="cls-2" d="M71.63,57.25c1.49-1.7,3.52.62,2.48,2.09-3.52,3.56-8.02-2.63-5.02-5.75,1.84-2.54,5.65-1.94,7.67-4.25,1.81-1.2,3.17-6.47,5.56-3.12-.5,4.57-5.11,7.36-9.17,8.59-.86.33-1.59,1.45-1.52,2.44Z"/>
      </g>
    </g>
  </g>
</svg>