<?xml version="1.0" encoding="UTF-8"?>
<svg id="Layer_2" xmlns="http://www.w3.org/2000/svg" viewBox="0 0 52.42 51.45">
  <defs>
    <style>
      .cls-1 {
        fill: #ebe3d6;
      }
    </style>
  </defs>
  <g id="Layer_1-2" data-name="Layer_1">
    <path class="cls-1" d="M9.06,10.11c-.2-.53-.84-1.03-.73-1.64.17-.46,1.32-.81,2.25.24.62.75.72,1.79.46,2.75C8.89,17.54-.24,15.57,0,9.04.4.03,10.61-2.15,17.34,2.08c6.81,3.58,11.3,11.53,19.18,12.8,5.27.94,10.22-2.46,13.21-6.51,1.16-1.4,2.03-2.4,2.44-2.53.47-.19.3.76-.47,2.39-3.17,7.09-12.53,11.65-19.88,7.93-6.3-2.77-10.5-9.47-16.82-12.4C11.12,1.75,5.18,1.71,3.09,6.16c-.99,2.02-.55,4.88,1.54,5.97,1.76,1.02,5.01-.42,4.45-1.96l-.02-.06Z"/>
    <path class="cls-1" d="M9.06,44.08c-.2-.53-.84-1.03-.73-1.64.17-.46,1.32-.81,2.25.24.62.75.72,1.79.46,2.75C8.89,51.51-.24,49.54,0,43.01c.39-9.01,10.6-11.19,17.33-6.96,6.81,3.58,11.3,11.53,19.18,12.8,5.27.94,10.22-2.46,13.21-6.51,1.16-1.4,2.03-2.4,2.44-2.53.47-.19.3.76-.47,2.39-3.17,7.09-12.53,11.65-19.88,7.93-6.3-2.77-10.5-9.47-16.82-12.4-3.87-2.01-9.81-2.05-11.9,2.4-.99,2.02-.55,4.88,1.54,5.97,1.76,1.02,5.01-.42,4.45-1.96l-.02-.06Z"/>
    <path class="cls-1" d="M43.36,26.85c.2.53.84,1.03.73,1.64-.17.46-1.32.81-2.25-.24-.62-.75-.72-1.79-.46-2.75,2.15-6.08,11.28-4.11,11.04,2.42-.39,9.01-10.6,11.19-17.33,6.96-6.81-3.58-11.3-11.53-19.18-12.8-5.27-.94-10.22,2.46-13.21,6.51-1.16,1.4-2.03,2.4-2.44,2.53-.47.19-.3-.76.47-2.39,3.17-7.09,12.53-11.65,19.88-7.93,6.3,2.77,10.5,9.47,16.82,12.4,3.87,2.01,9.81,2.05,11.9-2.4.99-2.02.55-4.88-1.54-5.97-1.76-1.02-5.01.42-4.45,1.96l.02.06Z"/>
  </g>
</svg>