<?xml version="1.0" encoding="UTF-8"?>
<svg id="Layer_2" xmlns="http://www.w3.org/2000/svg" viewBox="0 0 186.4 326.39">
  <defs>
    <style>
      .cls-1 {
        fill: #214e34;
      }

      .cls-2 {
        fill: #ebe3d6;
      }
    </style>
  </defs>
  <g id="Layer_1-2" data-name="Layer_1">
    <g>
      <path class="cls-2" d="M4.86,103.99c-1.3-20.34-.91-40.74-2.54-61.04-.23-2.9-.4-5.8-.38-8.71.04-7.14-3.1-19-1.48-25.77.66-2.76,3.1-4.7,5.93-4.91C25.63,2.12,44.18-2.19,63.03,1.39c7.77,1.48,15.64,2.38,23.53,2.95,27.21,1.96,54.14,7.5,81.33,8.07.39,0,.78,0,1.16-.08,11.88-2.28,9.69,71.31,11.47,82.37-.23,0,.23,0,0,0,12.91,72.08.45,144.48,1.31,216.88.04,3.16-2.18,5.91-5.29,6.53-36.45,7.29-75.45,7.63-112.87,6.21-1.43-.05-2.86-.11-4.28-.25-10.2-.95-46.24,8.04-44.66-4.14.31-2.41.64-4.81.77-7.24,3.34-62.32-7.22-131.19-9.84-190.55"/>
      <g>
        <g>
          <path class="cls-1" d="M82.62,203.17c-8.03,12.28-27.46,1.9-19.11-11.05,10.2-11.33,22.75-20.95,19.57-38.09,0-2.72,1.2-5.57,3.85-6.6,4.59-2.5,11.69,6.31,5.57,8.01-1.4.66-3.28-1.13-1.6-2.1,2.16-1.07-1.08-4.52-2.66-3.02-3.1,3.54.33,9.88-1.97,14.31-.45,12.91-12.39,18.93-19.43,28.37-7.83,9.62,5.84,17.87,12.95,8.97,4.57-5.09-2.52-14.61-6.77-7.36,1.19-2.61,4.27-.08,2.38,1.66-2.85,3.66-7.1.26-5.17-3.6,4.91-7.46,15.05-1.37,13.75,6.63,2.59-5.9,9.15-11.7,5.81-18.58-2.03-4.05-7,.07-6.71,3.48,0,2.16,2.36,1.97,2.88.11.33-.81-1.47-1.19-.78-2.16,2.75-2.09,4.84,3.22,2.11,4.84-9.77,5.91-8.22-13.97,1.62-9.73,9.93,6.25.24,17.17-3.05,24.45-1.46,2.86-.67,6.22-1.77,9.08-3.08.28-1.21-5.54-1.46-7.63Z"/>
          <path class="cls-1" d="M59.56,182.31c4.64,1.09,10.75-5.68,5.35-8,3.43,5.61-7.82,6.81-6.23.62,5.81-11.13,17.65,4.82,6.74,9.26-8.45,4.79-20.65-5.51-12.9-13.67,5.02-6.21,13.59-5.67,19.61-9.81,6.23-2.21,5.06-28.09,11.07-22.73-2.96,8.4-1.77,20.08-9.71,25.77-6.05,4.03-14.58,3.77-19.29,10.15-2.89,3.84,1.1,8.78,5.37,8.42ZM62.86,174.83c-.78.36-1.14.87-1.08,1.5.83-.14,1.11-.53,1.08-1.5Z"/>
          <path class="cls-1" d="M88.77,254.71c-.85,5.52-11.5,6.01-10.26-.39,1.1-2.18,6.09-.31,3.43,1.61.03.07.05.14.08.21,3.63.06,4.49-3.33,4.12-6.35-3.18.33-6.77-.54-8.01-3.83-.95-1.23-4.31.03-4.38,1.76-.23,1.5,1.99,1.67,1.57,3.06-1.36,1.68.55,3.73-.77,5.43-.82,1.53-4.01.35-2.81-1.31.74-1.04.28-2.54.2-3.64-1.6.99-4.12.52-5.28,1.92-.41.75-.64.77-1.44.5-.89-.18-1.58-.92-1.32-1.86.77-2.85,4.21-1.46,6.02-3.19.38-2.82,2.23-5.8,5.42-5.73,2.15-.25,5.04-.2,5.71,2.47.16,2.23,3.49,1.88,4.72.82,4.78-4.49,8.54-12.53,7.21-19.48-.42-1.21.18-3.52,1.87-2.43,1.59,1.7,1.08,4.63,1.52,6.82-.24,4.96-2.23,9.95-5.11,13.96-1.86,1.96-3.65,6.45-.03,7.54,1,.25,2.04-.99,1.12-1.75-.45-.54-.31-1.03.37-1.29,3.26-1.13,3.95,3.88,1.35,5.03-1.68.98-3.44.54-5.31.13Z"/>
          <path class="cls-1" d="M92.56,170.36c2.17-2.17,5.86.78,3.97,3.31-3.8,4.41-9.75-2.26-6.47-6.33,6.94-7.12,14.36,4.09,12.94,11.08-1.56,14.74-21.56,26.7-9.58,42.15.18.33.31.77.26,1.13-5.3.69-6.51-9-7-13.11-.55-13.87,17.72-22.35,12.25-36.9-.36-3.45-6.47-6.25-6.35-1.33Z"/>
          <path class="cls-1" d="M119.65,173.65c.35-.66.19-1.95,1.09-1.66,2.8.46,1.67,3.08.13,4.43-1.64,1.12-3.49-.75-4.08-2.21-.57-10.93,13.6-7.01,12.66,2.27-.12,8.78-11.55,10.91-16.42,4.39-6.38-13.29-.55-30.41-13.17-41.43-1.02-5.63,5.77,3.14,6.55,4.59,10.23,8.12-.56,43.71,17.87,36.94,6.99-4.63-2.93-17.47-4.62-7.33Z"/>
          <path class="cls-1" d="M92.61,93.81c7.39.71.82,10.13-3.73,3.79-2.85-12.08,13.2-8.29,12.19,2.53,1.68,14-15.47,22.99-10.96,37.1,0,2.17-2.02.67-2.43-.53-6.55-14.34,13.38-24.79,9.81-39.23-.3-2.25-2.36-6.4-4.96-3.86.03.07.06.13.09.2Z"/>
          <path class="cls-1" d="M124.73,213.71c-1.22.27-3.23-1.1-2.04-2.25.74-.79,1.94.1,2.79-.57,2.72-3.16-3.95-2.6-3.49.68.42,7.92,14.56,5.7,12.45-2.09-2.75-12.91-19.97-4.45-25.58-22.17-.44-1.82-2.78-6.36.84-5.44,1.28,2.86,1.74,6.65,4.02,9.27,3.89,6.45,11.14,6.93,17.4,9.41,10.41,6.04,5.89,22.44-6.74,18-4.82-1.83-7.66-8.8-2.58-11.97,6-3.39,10.46,6.13,2.92,7.14-.02-.06.02.06,0,0Z"/>
          <path class="cls-1" d="M119.71,249.52c-1.04,2.64-5.99,1.58-3.66-.51.63-.32,1.06-.84.87-1.19-.58-.95-1.86-.39-2.47.21-2.86,2.42-8.07,1.7-10.04-1.58-.82,1.69-5.65,9.43-1.14,8.05.67-.76-.13-2.13.55-2.76,2.06-.8,3.86,3.25,2.1,4.33-2.05,1.98-6.23,1.55-7.2-1.34-1.55-4.36,2.73-8.78,4.34-12.71,3.02-6.07.97-13.02.32-19.41-.28-1.66-.74-6.5,1.98-4.13,1.28,3.14,1.3,6.97,1.81,10.36,1.82,5.58-1.15,11.71-.04,16.96,3.9,3.28,7.91-4.06,11.8.29,1.28.1,1.82,1.17,2.87,1.89,1.25.84,2.7-.48,3.91.37,1.92,3.35-4.42,2.72-5.99,1.15Z"/>
          <path class="cls-1" d="M65.08,146.31c4.23,2.91-4.28,4.87-4.44.77.16-7.58,13.18-2.74,10.37,3.85-2.96,8.68-18.48,5.24-17.04-3.8,1.44-10.16,13.23-9.94,20.94-11.72,2.64-.5,5.63-7.11,6.8-1.86-4.11,8.53-16.3,3.25-22.13,10.02-6.55,5.74,1.62,14.01,7.54,7.84,2.07-1.61.96-6.58-2.03-5.11Z"/>
          <path class="cls-1" d="M120.41,150.78c1.22.42,2.9.45,1.56-1.05-6.57-.58-1.66,9.95,3.96,7.65,6.37-1.02,3.54-9.88-.45-12.39-4.82-4.88-18.09-5.17-18.19-12.93.5-.7,2.23-.43,2.44.46,5.11,6.46,15.59,6.16,20.65,13.25,6.9,7.99-1.1,18.33-10.46,13.46-4.82-2.11-6.71-11.13-.37-12.31,2.68-.62,5.42.72,6.17,3.43,1.22,3.77-7.89,4.97-5.3.44Z"/>
          <path class="cls-1" d="M62.25,101.92c-3.57,3.1.35,7.89,3.62,9.37,1.77,1.53,5.27.31,6.08,2.79-2.57,4.36-12.82-3.56-13.66-7.57-2.32-2.97,2.21-11.03,4.62-5.36,2.78-5.62,13.75-2.71,9.64,3.07-2.24,1.39-5.98-2-2.65-3.21-1.94-2.38-5.87,2.71-3.91,4.75,5.78,6.19,17.48-.13,15.72-8.57.5-2.1,3.59-.61,3.1,1.16,2.45,13.29-23.16,18.1-22.57,3.59Z"/>
          <path class="cls-1" d="M103.35,206.99c-2.55-8.53-8.1,3.17-5.46,7.63,3.89,8.87,8.95,22.71.96,30.2-.64-.3-1.77-.4-1.28-1.39,2.87-6.34,3.87-13.78.79-20.25-2.58-6.12-7.62-15.34-.97-20.54,2.88-1.78,6.9-1.07,8.48,2.13,4.54,5.9-4.9,11.11-7.11,4.37-.35-2.51,2.87-4.15,4.6-2.15Z"/>
          <path class="cls-1" d="M98.39,129.48c-14.27,12.34,13.95,29.37,7.31,41.91-2.65-.22-1.45-4.19-2.23-6.05-2.31-10.89-13.87-18.71-12.18-30.58.32-7.65,11.4-11.98,13.25-2.73-.32,2.44-4.11,3.89-6.06,2.2-1.31-1.04.27-3.12-.09-4.74Z"/>
          <path class="cls-1" d="M109.1,117.92c4.34,1.54-.77,6.15-2.98,3.2-3.33-4.99,4.21-9.01,7.82-5.25,7.64,7.7-5.43,17.64-11.63,9.29-6.78-9.35,6.66-20-.26-29.45.65-1.4,2.73.27,3.28,1.2,5.79,8.44-4.35,17.43-1.07,26.12,2.92,7.04,12.45-.14,7.66-5.46-.71-.83-3-1.38-2.82.35Z"/>
          <path class="cls-1" d="M76.74,119.58c7-2.24,8.72,8.66,1.13,8.13-3.53.26-7.62-2.84-6.52-6.64,1.51-6.1,9.7-5.91,12.77-10.73,2.72-3,.3-8.41,1.99-10.93,3.18-.98,2.63,8.54,1.58,10.48.22,6.5-19.94,10.06-11.15,15.58,1.74.08,4.75-1.59,2.99-3.37-.91-.24-.3,1.37-.96,1.67-2.15.09-3.78-2.34-1.83-4.19Z"/>
          <path class="cls-1" d="M66.68,219.18c1.92,4.7-5.25,2.96-3.88-.75,3.63-4.69,10.4-.32,7.39,4.89-3.68,4.99-16.64,2.03-13.67-5.05,4.02-7.84,13.19-3.37,19.5-6.18,1.26-1.41,5.3-4,4.21-.14-4.89,7.85-17.24-.7-21.24,8.2-.48,4,7.53,3.88,8.99,1.23.22-1.06.64-3.17-1.3-2.2Z"/>
          <path class="cls-1" d="M55.63,198.19c.09,3.38-4.39,6-4.96,1.51.14-1.01,1.08-1.59,2.03-1.66-.02-.62.3-1.61-.61-1.63-10.3,2.85,2.01,14.3,5.97,6.08.81-4.4-1.61-8.77.52-13.07,1.29-4.84,5.88-3.19,2.29,1.25-2.23,4.14.97,8.51-.29,12.72-2.37,8.31-18.13,3.05-14.78-5.12,1.44-4.66,9.84-6.49,9.66-.1.06,0,.12.01.18.02Z"/>
          <path class="cls-1" d="M118.29,112.82c4.39.16,3-8.65-.55-6.73-.69,1.26,1.4,1.63,1.02,2.83-3.85,3.4-6.33-5.53-1.58-5.52,10.36-1.12,8.24,15.62-1.79,11.17-7.68-2.75-5-11.86-8.41-17.33-1.12-1.73-.35-2.18,1.47-1.9,5.68,4.14,1.44,16.03,9.83,17.48Z"/>
          <path class="cls-1" d="M66.84,132.59c2.27-.55,4.45-1.47,6.58-2.32,1.04-.02,2.68,1.77,1.17,2.42-4.53,2.7-9.97,2.05-14.57,4.51-6.64,2.47-10.34,11.4-4.2,16.36-1.26,3.81-6.54-3.78-5.82-6.25-.77-9.14,9.08-13.67,16.84-14.73.02.1-.02-.1,0,0Z"/>
          <path class="cls-1" d="M138.2,152.88c-.22,1.35-.17,2.72-.45,4.06-.51,1.88-4.63,1.92-2.79-.57,2.6-12.51-13.9-16.92-21.6-22.88-1.21-1.6,1.29-2.51,2.15-1.16,1.07.95,2.78,1.29,4.07,1.99,7.3,4.33,17.88,9.11,18.61,18.56.08,0-.08,0,0,0Z"/>
          <path class="cls-1" d="M141.06,210.1c.3,4.35-4.09,6.3-2.55.54-1.27-10.67-13.05-13.33-20.61-18.08-1.49-1.48-7.69-7.63-3.97-8.6,2.74,2.16,3.71,6.82,7.62,8.34,8.37,3.02,17.77,8.15,19.51,17.79Z"/>
          <path class="cls-1" d="M100.74,75.7c-.41,4.68-3.29,8.53-4.8,12.55-5.31-1.05,1.24-7.58,1.7-10.5,2.38-4.12-2.33-12.15-5.57-5.66-.37,1.07.5,3.11,1.86,2.67-.75-5.04,5.71.59.78,2.2-15.06-4.09,5.28-18.52,6.02-1.26Z"/>
          <path class="cls-1" d="M106.96,191.33c-.16,2.86-5.04,1.32-2.37-.74-6.99,3.21,10.3,13.38,9.21,19.68.31,1.33.13,4.61-1.95,2.86.34-9.18-10.64-12.9-11.72-21.12-.26-4.57,6.51-5.58,6.83-.68Z"/>
          <path class="cls-1" d="M131.14,177.95c.21-3.88-2.65-7.01-3.47-10.47,3.86-2.97,8.62,13.62,5.14,16.61-1.46,3.72-9.2,6.91-10.55,1.92,4.84.08,9.23-2.22,8.88-8.06Z"/>
          <path class="cls-1" d="M116.74,93.39c-.08,1.69-1.21,3.61-3.07,3.75-1.38.09-3.29-1.32-1.39-2.49,5.31-5.82-5.93-10.31-7.49-15.44-1.23-6.08,3.93.45,4.82,2.44,3.42,3.13,7.3,6.67,7.13,11.74Z"/>
          <path class="cls-1" d="M77.05,89.17c.45-4.25,3.28-7.59,7.24-9.13.52-.41,1.05-.99,1.32-1.61,1.42-2.38,3.6,1.69,2.21,3.02-3.87,3.2-9.84,5.89-7.23,12.07-.51,3.93-3.86-2.65-3.54-4.35Z"/>
          <path class="cls-1" d="M103.62,81.77c.09,2.97-1.9,9.38,2.38,9.53.74-.14,1.41-2.1.08-1.86-2.32.02-1.47-3.28.54-2.68,3.48.83,3.57,6.05.04,6.92-8.75,2.54-6.36-20.93-3.05-11.91Z"/>
          <path class="cls-1" d="M128.79,108.19c.16,3.77-3.19,13.03-7.55,9.72,0-2.05,2.91-3.36,3.44-5.54,2.46-3.35.86-6.73-1.15-9.73,1.09-4.31,5.45,3.8,5.26,5.55Z"/>
          <path class="cls-1" d="M84.34,90.98c1.24-1.41,2.93.51,2.06,1.74-2.93,2.96-6.67-2.19-4.17-4.78,1.53-2.11,4.7-1.61,6.37-3.53,1.5-1,2.63-5.38,4.63-2.6-.42,3.8-4.25,6.12-7.63,7.15-.71.27-1.33,1.21-1.26,2.03Z"/>
        </g>
        <g>
          <path class="cls-1" d="M41.97,42.96c1.15.49,2.11,1.13,2.89,1.9s1.29,1.58,1.55,2.42c.26.84.35,1.69.27,2.57-.08.87-.39,1.66-.94,2.37s-1.21,1.31-2,1.8c-.79.49-1.79.78-2.99.86-1.2.08-2.49-.06-3.87-.42-.03,0-.19-.03-.47-.1s-.47-.12-.57-.15-.28-.09-.54-.17-.46-.15-.59-.2-.31-.12-.54-.22-.4-.2-.52-.3-.25-.21-.39-.32-.27-.25-.37-.39-.16-.3-.2-.47c-.13-.99-.4-2.57-.81-4.76-.41-2.19-.71-3.96-.89-5.31-.18-1.35-.2-2.93-.05-4.74.15-1.81.57-3.41,1.26-4.79,1.25-1.28,2.59-1.99,4.02-2.12,1.43-.13,2.68.21,3.75,1.04,1.07.82,1.96,1.85,2.67,3.08.71,1.23,1.02,2.63.94,4.2-.08,1.56-.62,2.97-1.6,4.22ZM40.09,37.33c.1-1.48-.49-2.57-1.78-3.28-1.28-.71-2.52-.65-3.7.17-.76.3-1.17,1.7-1.23,4.2-.07,2.5.09,5.03.47,7.6.38,2.57.75,4.29,1.11,5.18,1.32,1.18,3.54,1.32,6.66.39.69-.23,1.14-.71,1.36-1.43.21-.72.23-1.47.05-2.25-.18-.77-.45-1.46-.81-2.05-.2-.36-.5-.67-.91-.94s-.85-.48-1.31-.64l-1.38-.49c-.46-.16-.88-.39-1.26-.67-.38-.28-.67-.62-.86-1.01.2-.39.53-.76,1.01-1.09.48-.33.91-.6,1.31-.81.39-.21.72-.57.99-1.06s.36-1.1.3-1.83Z"/>
          <path class="cls-1" d="M64.47,44.98c-4.11,0-6.51.11-7.18.32s-.98.95-.91,2.2c.13,2.34-.16,4.57-.89,6.71-1.61.53-2.62-.48-3.01-3.01-.49-3.09-.16-7.29.99-12.59.36-1.78.71-2.99,1.04-3.65.72-1.55,1.55-2.7,2.47-3.46.92-.76,1.82-1.12,2.69-1.09.87.03,1.74.33,2.62.89.87.56,1.63,1.32,2.27,2.27.64.95,1.17,2.04,1.58,3.26.41,1.22.65,2.44.72,3.65.03.49.16,1.64.39,3.43.23,1.79.39,3.24.47,4.34.08,1.1,0,2.32-.27,3.65-.26,1.33-.76,2.33-1.48,2.99-.69-.26-1.2-.68-1.53-1.26s-.48-1.22-.44-1.92c.03-.71.09-1.48.17-2.32.08-.84.19-1.63.32-2.37s.13-1.42,0-2.05ZM64.37,41.53c-.26-1.91-.6-3.5-1.01-4.79s-.88-2.18-1.41-2.69c-.53-.51-1.09-.65-1.68-.42-.59.23-1.2.93-1.83,2.1-.63,1.17-1.23,2.76-1.83,4.76-.3.66.08,1.04,1.14,1.14.39.07,1.97.02,4.74-.15.95-.07,1.58-.05,1.88.05Z"/>
          <path class="cls-1" d="M78.24,34.52c-.36,3.92-.54,7.78-.54,11.6,0,.16,0,.49.02.99s.02.82.02.99c0,.2.22.32.67.37s1,.04,1.68-.02,1.39-.12,2.15-.17,1.45-.1,2.07-.15,1.09-.02,1.38.07c1.78,0,3.01.53,3.7,1.58.46.72.54,1.51.25,2.34-.3.84-.9,1.31-1.83,1.41-.56.07-1.83.33-3.8.79s-3.61.67-4.91.64-2.53-.43-3.68-1.18c-.69-1.09-1.18-2.65-1.48-4.69-.3-2.04-.39-4.18-.27-6.42.12-2.24.3-4.37.57-6.39.26-2.02.58-3.76.94-5.21.72-.99,1.48-.9,2.27.25.72.99,1.02,1.97.89,2.96-.03.1-.07.18-.1.25ZM87.37,51.45l-10.32.59c.49.49,1.91.67,4.24.54,2.34-.13,4.36-.51,6.07-1.14Z"/>
          <path class="cls-1" d="M109.68,49.03c0,1.61-.57,2.94-1.7,3.97s-2.45,1.65-3.95,1.85-3.01.02-4.54-.52-2.64-1.44-3.33-2.69c-1.09-1.18-1.25-2.58-.49-4.2.66-1.35,1.58-2.14,2.76-2.37s2.2.31,3.06,1.63c.39.92.16,1.63-.69,2.12s-1.56.44-2.12-.15c-.26-.26-.43-.61-.49-1.04-.99,1.84-.66,3.16.99,3.95,1.45.72,3.09.79,4.94.2,1.88-.63,2.85-1.69,2.91-3.21l-.1-1.14c-.26-.86-.84-1.55-1.73-2.1-.89-.54-1.88-.97-2.96-1.28-1.09-.31-2.16-.66-3.21-1.04s-1.96-.98-2.71-1.8c-.76-.82-1.17-1.88-1.23-3.16-.16-1.02-.09-2,.22-2.94.31-.94.79-1.74,1.43-2.39.64-.66,1.41-1.19,2.32-1.6.9-.41,1.83-.65,2.76-.72.94-.07,1.88.07,2.84.39.95.33,1.79.86,2.52,1.58,2.04,1.68,2.73,3.59,2.07,5.73-.46,1.45-1.33,2.44-2.62,2.96-1.38.63-2.45.26-3.21-1.09-.33-.56-.54-1.28-.64-2.17.2-.89.77-1.46,1.73-1.73.95-.23,1.58.02,1.88.74.13.36.15.79.05,1.28.63-1.28.46-2.53-.49-3.75-.95-1.22-2.12-1.78-3.5-1.68-.99.23-1.88.73-2.67,1.51-.79.77-1.33,1.6-1.63,2.49s-.23,1.77.2,2.64c.43.87,1.27,1.51,2.52,1.9.16.07.44.18.84.35.99.36,1.75.66,2.3.89s1.24.58,2.1,1.06c.86.48,1.51.95,1.95,1.41.44.46.84,1.05,1.18,1.78.35.72.5,1.5.47,2.32Z"/>
          <path class="cls-1" d="M127.95,44.98c-4.11,0-6.51.11-7.18.32s-.98.95-.91,2.2c.13,2.34-.16,4.57-.89,6.71-1.61.53-2.62-.48-3.01-3.01-.49-3.09-.16-7.29.99-12.59.36-1.78.71-2.99,1.04-3.65.72-1.55,1.55-2.7,2.47-3.46.92-.76,1.82-1.12,2.69-1.09.87.03,1.74.33,2.62.89.87.56,1.63,1.32,2.27,2.27.64.95,1.17,2.04,1.58,3.26.41,1.22.65,2.44.72,3.65.03.49.16,1.64.39,3.43.23,1.79.39,3.24.47,4.34.08,1.1,0,2.32-.27,3.65-.26,1.33-.76,2.33-1.48,2.99-.69-.26-1.2-.68-1.53-1.26-.33-.58-.48-1.22-.44-1.92.03-.71.09-1.48.17-2.32.08-.84.19-1.63.32-2.37.13-.74.13-1.42,0-2.05ZM127.85,41.53c-.26-1.91-.6-3.5-1.01-4.79s-.88-2.18-1.41-2.69c-.53-.51-1.09-.65-1.68-.42-.59.23-1.2.93-1.83,2.1-.63,1.17-1.23,2.76-1.83,4.76-.3.66.08,1.04,1.14,1.14.39.07,1.97.02,4.74-.15.95-.07,1.58-.05,1.88.05Z"/>
          <path class="cls-1" d="M146.36,33.78c.49-.92,1.16-1.57,2-1.95.84-.38,1.7-.5,2.59-.37.89.13,1.76.46,2.62.99.53.39.94.86,1.23,1.38.3.53.49,1.15.59,1.88.1.72.16,1.33.17,1.8.02.48,0,1.18-.05,2.1-.05.92-.09,1.51-.12,1.78-.1.56-.15,1.97-.15,4.24s-.09,4.31-.27,6.12c-.18,1.81-.55,2.83-1.11,3.06-.56.13-1.03.12-1.41-.05s-.57-.56-.57-1.18c0-1.09.07-2.35.22-3.8.15-1.45.31-2.8.49-4.05s.31-2.54.39-3.87c.08-1.33.02-2.65-.17-3.95-.2-1.3-.56-2.51-1.09-3.63-2.04-.92-3.24.25-3.6,3.5-.13,1.18-.12,4.18.05,8.98.13,4.18-.2,6.55-.99,7.11-.33.2-.74.2-1.23,0-.92-.36-1.37-2.98-1.33-7.85.03-5.4.03-8.42,0-9.08-.2-2.47-.69-3.72-1.48-3.75-.26,0-.59.13-.99.39-.69.43-1.2,1.16-1.53,2.2s-.49,2.19-.49,3.46.05,2.62.15,4.07.21,2.85.32,4.2c.12,1.35.16,2.56.15,3.63-.02,1.07-.19,1.91-.52,2.52-.33.61-.84.86-1.53.77-.86-1.12-1.36-3.18-1.51-6.17-.15-2.99-.02-5.96.39-8.91.41-2.94.93-5.16,1.55-6.64.56-1.12,1.37-1.83,2.44-2.15,1.07-.31,2.08-.16,3.04.44.95.61,1.53,1.54,1.73,2.79Z"/>
        </g>
        <g>
          <path class="cls-1" d="M60.57,274.63c-.1.56-.61,1.02-1.53,1.38-.82.33-1.76.49-2.81.49h-.1c-.43,0-1.05-.08-1.88-.25h-.05c-.3-.03-.59-.07-.89-.1-.3-.03-.61-.07-.94-.12s-.58-.09-.74-.12c-.13-.03-.79-.1-1.97-.2-.36,0-.63.08-.79.25-.3.43.08,2.12,1.14,5.08v.05c.23.23.51.35.84.35.53,0,1.41-.26,2.67-.79,1.48-.56,2.48-.84,3.01-.84.72,0,1.23.28,1.53.84.07.13.1.23.1.3.07.49,0,.93-.2,1.31-.2.38-.45.68-.77.91s-.72.43-1.23.59-.92.28-1.23.35-.7.13-1.16.2c-.79.13-1.55.31-2.27.54-.3.1-.63.15-.99.15-.13,0-.21.02-.25.05s-.08.13-.15.3c-.1.3-.15,1.23-.15,2.81.13,3.03-.46,5.23-1.78,6.61-.3.33-.7.61-1.21.84s-1,.35-1.46.35c-.72,0-1.46-.25-2.2-.74s-1.26-1.09-1.55-1.78c-.66-1.58-.18-3.16,1.43-4.74.03,0,.07-.02.12-.05s.07-.07.07-.1c.36-.23.76-.35,1.18-.35.59,0,1.05.24,1.38.72s.49,1.03.49,1.65c0,.53-.11.95-.32,1.26s-.5.47-.86.47c-.33,0-.64-.12-.94-.35-.03-.03-.07-.05-.1-.05-.1,0-.16.02-.2.05-.07.07-.1.12-.1.15v.05c.03.33.16.58.39.77s.48.27.74.27c.63,0,1.17-.3,1.63-.89.79-1.05.92-2.57.39-4.54v-.1c-.16-1.91-.64-4.51-1.43-7.8-.33-1.38-.55-2.41-.67-3.08-.12-.67-.16-1.4-.12-2.17.03-.77.21-1.37.54-1.8.76-.89,2.22-1.33,4.39-1.33,1.68,0,4.01.25,7.01.74.53.1.9.18,1.14.25,1.97.59,2.91,1.32,2.81,2.17Z"/>
          <path class="cls-1" d="M78.49,286.03c-4.11,0-6.51.11-7.18.32s-.98.95-.91,2.2c.13,2.34-.16,4.57-.89,6.71-1.61.53-2.62-.48-3.01-3.01-.49-3.09-.16-7.29.99-12.59.36-1.78.71-2.99,1.04-3.65.72-1.55,1.55-2.7,2.47-3.46.92-.76,1.82-1.12,2.69-1.09.87.03,1.74.33,2.62.89.87.56,1.63,1.32,2.27,2.27.64.95,1.17,2.04,1.58,3.26.41,1.22.65,2.44.72,3.65.03.49.16,1.64.39,3.43s.39,3.24.47,4.34c.08,1.1,0,2.32-.27,3.65s-.76,2.33-1.48,2.99c-.69-.26-1.2-.68-1.53-1.26-.33-.58-.48-1.22-.44-1.92.03-.71.09-1.48.17-2.32.08-.84.19-1.63.32-2.37.13-.74.13-1.42,0-2.05ZM78.39,282.58c-.26-1.91-.6-3.5-1.01-4.79s-.88-2.18-1.41-2.69c-.53-.51-1.09-.65-1.68-.42-.59.23-1.2.93-1.83,2.1-.63,1.17-1.23,2.76-1.83,4.76-.3.66.08,1.04,1.14,1.14.39.07,1.97.02,4.74-.15.95-.07,1.58-.05,1.88.05Z"/>
          <path class="cls-1" d="M92.26,275.57c-.36,3.92-.54,7.78-.54,11.6,0,.16,0,.49.02.99s.02.82.02.99c0,.2.22.32.67.37s1,.04,1.68-.02,1.39-.12,2.15-.17,1.45-.1,2.07-.15,1.09-.02,1.38.07c1.78,0,3.01.53,3.7,1.58.46.72.54,1.51.25,2.34-.3.84-.9,1.31-1.83,1.41-.56.07-1.83.33-3.8.79s-3.61.67-4.91.64c-1.3-.03-2.53-.43-3.68-1.18-.69-1.09-1.18-2.65-1.48-4.69-.3-2.04-.39-4.18-.27-6.42.12-2.24.3-4.37.57-6.39.26-2.02.58-3.76.94-5.21.72-.99,1.48-.9,2.27.25.72.99,1.02,1.97.89,2.96-.03.1-.07.18-.1.25ZM101.39,292.5l-10.32.59c.49.49,1.91.67,4.24.54s4.36-.51,6.07-1.14Z"/>
          <path class="cls-1" d="M113.68,275.57c-.36,3.92-.54,7.78-.54,11.6,0,.16,0,.49.02.99s.02.82.02.99c0,.2.22.32.67.37s1,.04,1.68-.02,1.39-.12,2.15-.17,1.45-.1,2.07-.15,1.09-.02,1.38.07c1.78,0,3.01.53,3.7,1.58.46.72.54,1.51.25,2.34-.3.84-.9,1.31-1.83,1.41-.56.07-1.83.33-3.8.79-1.97.46-3.61.67-4.91.64-1.3-.03-2.53-.43-3.68-1.18-.69-1.09-1.18-2.65-1.48-4.69-.3-2.04-.39-4.18-.27-6.42.12-2.24.3-4.37.57-6.39.26-2.02.58-3.76.94-5.21.72-.99,1.48-.9,2.27.25.72.99,1.02,1.97.89,2.96-.03.1-.07.18-.1.25ZM122.81,292.5l-10.32.59c.49.49,1.91.67,4.24.54,2.34-.13,4.36-.51,6.07-1.14Z"/>
          <path class="cls-1" d="M145.12,290.08c0,1.61-.57,2.94-1.7,3.97s-2.45,1.65-3.95,1.85c-1.5.2-3.01.02-4.54-.52s-2.64-1.44-3.33-2.69c-1.09-1.18-1.25-2.58-.49-4.2.66-1.35,1.58-2.14,2.76-2.37s2.2.31,3.06,1.63c.39.92.16,1.63-.69,2.12-.86.49-1.56.44-2.12-.15-.26-.26-.43-.61-.49-1.04-.99,1.84-.66,3.16.99,3.95,1.45.72,3.09.79,4.94.2,1.88-.63,2.85-1.69,2.91-3.21l-.1-1.14c-.26-.86-.84-1.55-1.73-2.1-.89-.54-1.88-.97-2.96-1.28s-2.16-.66-3.21-1.04-1.96-.98-2.71-1.8c-.76-.82-1.17-1.88-1.23-3.16-.16-1.02-.09-2,.22-2.94.31-.94.79-1.74,1.43-2.39.64-.66,1.41-1.19,2.32-1.6.9-.41,1.83-.65,2.76-.72.94-.07,1.88.07,2.84.39.95.33,1.79.86,2.52,1.58,2.04,1.68,2.73,3.59,2.07,5.73-.46,1.45-1.33,2.44-2.62,2.96-1.38.63-2.45.26-3.21-1.09-.33-.56-.54-1.28-.64-2.17.2-.89.77-1.46,1.73-1.73.95-.23,1.58.02,1.88.74.13.36.15.79.05,1.28.63-1.28.46-2.53-.49-3.75-.95-1.22-2.12-1.78-3.5-1.68-.99.23-1.88.73-2.67,1.51-.79.77-1.33,1.6-1.63,2.49s-.23,1.77.2,2.64c.43.87,1.27,1.51,2.52,1.9.16.07.44.18.84.35.99.36,1.75.66,2.3.89s1.24.58,2.1,1.06c.86.48,1.51.95,1.95,1.41s.84,1.05,1.18,1.78c.35.72.5,1.5.47,2.32Z"/>
        </g>
      </g>
    </g>
  </g>
</svg>